<?xml version="1.0" standalone="no"?>
<!DOCTYPE svg PUBLIC "-//W3C//DTD SVG 20010904//EN"
 "http://www.w3.org/TR/2001/REC-SVG-20010904/DTD/svg10.dtd">
<svg version="1.0" xmlns="http://www.w3.org/2000/svg"
 width="512.000000pt" height="512.000000pt" viewBox="0 0 512.000000 512.000000"
 preserveAspectRatio="xMidYMid meet">
<metadata>
Created by potrace 1.14, written by Peter Selinger 2001-2017
</metadata>
<g transform="translate(0.000000,512.000000) scale(0.100000,-0.100000)"
fill="#000000" stroke="none">
<path d="M157 3348 c-13 -20 -14 -132 -12 -808 1 -432 2 -788 3 -792 5 -18 89
-25 156 -12 11 2 55 6 96 10 41 3 86 7 100 9 14 2 57 7 95 10 39 3 86 8 105
10 45 6 131 14 200 20 30 2 75 7 100 9 173 19 244 27 305 31 39 3 81 8 95 10
67 12 183 19 255 16 126 -6 267 -5 300 1 17 4 46 10 65 14 19 4 55 16 80 26
25 11 74 22 110 25 36 3 69 6 74 6 5 1 12 -9 16 -23 l6 -25 237 -1 237 -1 1
26 c1 14 0 36 0 48 -3 26 11 31 114 38 44 3 89 7 100 9 11 2 54 7 95 10 41 4
91 9 110 11 19 2 64 7 100 10 36 3 83 8 105 10 22 3 60 7 85 9 142 13 188 18
212 22 15 2 59 6 99 9 39 3 83 7 98 9 14 3 60 7 101 11 41 4 86 8 100 10 14 2
59 7 100 10 71 6 114 11 185 20 17 2 64 6 105 9 41 4 89 8 105 10 17 3 62 7
100 11 39 3 84 8 100 10 17 2 65 6 108 10 121 11 116 -5 116 353 1 333 0 336
-66 346 -43 6 -128 15 -293 31 -36 3 -81 8 -100 10 -19 2 -64 7 -100 10 -36 3
-83 8 -105 10 -22 2 -67 7 -100 10 -91 8 -167 16 -200 20 -16 2 -61 7 -100 10
-38 4 -81 8 -95 10 -14 2 -56 6 -95 10 -38 3 -88 8 -110 10 -22 2 -67 7 -100
10 -33 3 -76 8 -95 10 -19 2 -66 6 -105 10 -38 3 -81 8 -95 10 -14 2 -61 6
-105 10 -44 4 -87 8 -96 10 -8 2 -55 6 -105 11 -49 4 -98 8 -109 10 -11 1 -30
3 -41 3 -20 1 -22 7 -22 69 0 37 -1 77 -1 90 l-1 22 -241 0 c-223 0 -240 -1
-238 -17 5 -54 -2 -113 -14 -113 -7 0 -37 18 -66 41 -183 137 -454 162 -678
64 -34 -15 -67 -23 -86 -20 -18 2 -63 7 -102 10 -38 4 -83 8 -100 10 -16 2
-61 7 -100 11 -124 11 -142 13 -305 30 -74 7 -147 15 -200 20 -30 2 -73 7 -95
9 -22 2 -67 7 -100 10 -33 3 -73 8 -90 10 -16 2 -67 7 -112 10 -78 7 -82 6
-96 -17z"/>
</g>
</svg>
